<svg xmlns="http://www.w3.org/2000/svg" version="1.1" xmlns:xlink="http://www.w3.org/1999/xlink" xmlns:svgjs="http://svgjs.dev/svgjs" width="1500" height="1500" viewBox="0 0 1500 1500"><rect width="1500" height="1500" fill="#000000"></rect><g transform="matrix(0.6666666666666666,0,0,0.6666666666666666,249.39393939393938,438.5856950067477)"><svg viewBox="0 0 396 247" data-background-color="#0a1627" preserveAspectRatio="xMidYMid meet" height="935" width="1500" xmlns="http://www.w3.org/2000/svg" xmlns:xlink="http://www.w3.org/1999/xlink"><g id="tight-bounds" transform="matrix(1,0,0,1,0.2400000000000091,-0.09999999999999432)"><svg viewBox="0 0 395.52 247.2" height="247.2" width="395.52"><g><svg></svg></g><g><svg viewBox="0 0 395.52 247.2" height="247.2" width="395.52"><g transform="matrix(1,0,0,1,75.54432,95.89294416609448)"><svg viewBox="0 0 244.43135999999998 55.414111667811014" height="55.414111667811014" width="244.43135999999998"><g><svg viewBox="0 0 244.43135999999998 55.414111667811014" height="55.414111667811014" width="244.43135999999998"><g><svg viewBox="0 0 244.43135999999998 55.414111667811014" height="55.414111667811014" width="244.43135999999998"><g><svg viewBox="0 0 244.43135999999998 55.414111667811014" height="55.414111667811014" width="244.43135999999998"><g id="textblocktransform"><svg viewBox="0 0 244.43135999999998 55.414111667811014" height="55.414111667811014" width="244.43135999999998" id="textblock"><g><svg viewBox="0 0 244.43135999999998 38.587172035331704" height="38.587172035331704" width="244.43135999999998"><g transform="matrix(1,0,0,1,0,0)"><svg width="244.43135999999998" viewBox="1.27 -31.74 259.79 41.019999999999996" height="38.587172035331704" data-palette-color="#fe0039"><path d="M12.01 8.06L8.59 8.06 8.59-2.05Q11.28 0.29 14.79 0.49L14.79 0.49Q19.14 0.49 22.07-2.78L22.07-2.78Q24.9-5.96 24.9-10.84L24.9-10.84Q24.9-16.41 21.83-19.29L21.83-19.29Q19.68-21.24 16.6-21.24L16.6-21.24Q11.87-21.24 9.52-17.48L9.52-17.48Q8.94-16.5 8.54-15.43L8.54-15.43 8.3-20.75 1.27-20.75 1.27-19.53 4.93-19.53 4.93 5.13Q4.93 7.37 3.66 7.81L3.66 7.81Q2.93 8.06 1.27 8.06L1.27 8.06 1.27 9.28 13.23 9.28Q13.23 8.2 12.5 8.11L12.5 8.11Q12.3 8.06 12.01 8.06L12.01 8.06ZM15.04-19.29L15.04-19.29Q19.29-19.29 20.41-13.96L20.41-13.96Q20.75-12.35 20.75-10.35L20.75-10.35Q20.75-3.17 16.89-1.27L16.89-1.27Q15.77-0.73 14.45-0.73L14.45-0.73Q10.69-0.73 9.28-4.69L9.28-4.69Q8.54-6.69 8.54-9.42L8.54-9.42Q8.54-15.77 11.82-18.21L11.82-18.21Q13.28-19.29 15.04-19.29ZM52-1.22L52-1.22 49.56-1.22 49.56-20.75 41.89-20.75 41.89-19.53 45.9-19.53 45.9-8.98Q45.9-4.59 42.82-2.54L42.82-2.54Q41.45-1.61 39.99-1.61L39.99-1.61Q35.98-1.61 35.35-5.71L35.35-5.71Q35.25-6.4 35.25-7.18L35.25-7.18 35.25-20.75 27.83-20.75 27.83-19.53 31.59-19.53 31.59-7.91Q31.64 0.44 38.57 0.49L38.57 0.49Q42.23 0.49 44.58-2.49L44.58-2.49Q45.46-3.61 45.99-4.98L45.99-4.98 46.34 0 53.22 0Q53.22-1.07 52.49-1.17L52.49-1.17Q52.29-1.22 52-1.22ZM66.94-1.22L66.94-1.22 63.42-1.22 63.42-10.94Q63.42-15.38 66.16-18.07L66.16-18.07Q67.23-19.09 67.96-19.14L67.96-19.14Q68.79-19.14 69.48-17.92L69.48-17.92Q70.26-16.55 70.94-16.36L70.94-16.36Q71.24-16.26 71.53-16.26L71.53-16.26Q72.99-16.26 73.38-17.68L73.38-17.68Q73.48-17.97 73.48-18.26L73.48-18.26Q73.48-20.46 71.24-20.95L71.24-20.95Q70.75-21.04 70.31-21.04L70.31-21.04Q67.38-21.04 65.08-18.55L65.08-18.55Q64.01-17.38 63.37-15.92L63.37-15.92 63.18-20.75 56.1-20.75 56.1-19.53 59.76-19.53 59.76-4.15Q59.76-1.9 58.49-1.46L58.49-1.46Q57.76-1.22 56.1-1.22L56.1-1.22 56.1 0 68.16 0Q68.16-1.07 67.43-1.17L67.43-1.17Q67.23-1.22 66.94-1.22ZM85.73 8.06L82.32 8.06 82.32-2.05Q85 0.29 88.52 0.49L88.52 0.49Q92.86 0.49 95.79-2.78L95.79-2.78Q98.63-5.96 98.63-10.84L98.63-10.84Q98.63-16.41 95.55-19.29L95.55-19.29Q93.4-21.24 90.32-21.24L90.32-21.24Q85.59-21.24 83.24-17.48L83.24-17.48Q82.66-16.5 82.27-15.43L82.27-15.43 82.02-20.75 74.99-20.75 74.99-19.53 78.65-19.53 78.65 5.13Q78.65 7.37 77.39 7.81L77.39 7.81Q76.65 8.06 74.99 8.06L74.99 8.06 74.99 9.28 86.96 9.28Q86.96 8.2 86.22 8.11L86.22 8.11Q86.03 8.06 85.73 8.06L85.73 8.06ZM88.76-19.29L88.76-19.29Q93.01-19.29 94.13-13.96L94.13-13.96Q94.47-12.35 94.47-10.35L94.47-10.35Q94.47-3.17 90.62-1.27L90.62-1.27Q89.49-0.73 88.18-0.73L88.18-0.73Q84.42-0.73 83-4.69L83-4.69Q82.27-6.69 82.27-9.42L82.27-9.42Q82.27-15.77 85.54-18.21L85.54-18.21Q87-19.29 88.76-19.29ZM112.15-1.22L112.15-1.22 109.51-1.22 109.51-31.74 102.19-31.74 102.19-30.52 105.85-30.52 105.85-4.15Q105.85-1.9 104.58-1.46L104.58-1.46Q103.85-1.22 102.19-1.22L102.19-1.22 102.19 0 113.37 0Q113.37-1.07 112.64-1.17L112.64-1.17Q112.44-1.22 112.15-1.22ZM126.84-20.02L126.84-20.02Q130.26-20.02 131.38-17.14L131.38-17.14Q131.77-16.21 131.77-15.14L131.77-15.14Q131.77-12.7 129.43-12.16L129.43-12.16Q128.21-11.91 125.96-11.96L125.96-11.96 120.79-12.11Q121.03-17.72 124.45-19.43L124.45-19.43Q125.57-20.02 126.84-20.02ZM135.34-4.69L135.34-4.69 134.12-5.13Q132.41-1.42 128.6-0.93L128.6-0.93Q128.11-0.88 127.67-0.88L127.67-0.88Q122.55-0.88 121.23-6.98L121.23-6.98Q120.84-8.69 120.79-10.74L120.79-10.74 126.65-10.64Q132.6-10.55 134.31-11.77L134.31-11.77Q135.63-12.74 135.63-14.55L135.63-14.55Q135.63-17.87 132.26-19.82L132.26-19.82Q129.87-21.24 126.75-21.24L126.75-21.24Q120.64-21.24 118.01-16.16L118.01-16.16Q116.64-13.53 116.64-10.21L116.64-10.21Q116.64-4.15 120.98-1.22L120.98-1.22Q123.57 0.49 126.89 0.49L126.89 0.49Q132.17 0.49 134.66-3.32L134.66-3.32Q135.05-4 135.34-4.69ZM158.87 8.06L155.45 8.06 155.45-2.05Q158.14 0.29 161.65 0.49L161.65 0.49Q166 0.49 168.93-2.78L168.93-2.78Q171.76-5.96 171.76-10.84L171.76-10.84Q171.76-16.41 168.68-19.29L168.68-19.29Q166.54-21.24 163.46-21.24L163.46-21.24Q158.72-21.24 156.38-17.48L156.38-17.48Q155.79-16.5 155.4-15.43L155.4-15.43 155.16-20.75 148.13-20.75 148.13-19.53 151.79-19.53 151.79 5.13Q151.79 7.37 150.52 7.81L150.52 7.81Q149.79 8.06 148.13 8.06L148.13 8.06 148.13 9.28 160.09 9.28Q160.09 8.2 159.36 8.11L159.36 8.11Q159.16 8.06 158.87 8.06L158.87 8.06ZM161.9-19.29L161.9-19.29Q166.14-19.29 167.27-13.96L167.27-13.96Q167.61-12.35 167.61-10.35L167.61-10.35Q167.61-3.17 163.75-1.27L163.75-1.27Q162.63-0.73 161.31-0.73L161.31-0.73Q157.55-0.73 156.13-4.69L156.13-4.69Q155.4-6.69 155.4-9.42L155.4-9.42Q155.4-15.77 158.67-18.21L158.67-18.21Q160.14-19.29 161.9-19.29ZM198.86-1.22L198.86-1.22 196.42-1.22 196.42-20.75 188.75-20.75 188.75-19.53 192.75-19.53 192.75-8.98Q192.75-4.59 189.68-2.54L189.68-2.54Q188.31-1.61 186.85-1.61L186.85-1.61Q182.84-1.61 182.21-5.71L182.21-5.71Q182.11-6.4 182.11-7.18L182.11-7.18 182.11-20.75 174.69-20.75 174.69-19.53 178.45-19.53 178.45-7.91Q178.5 0.44 185.43 0.49L185.43 0.49Q189.09 0.49 191.44-2.49L191.44-2.49Q192.31-3.61 192.85-4.98L192.85-4.98 193.19 0 200.08 0Q200.08-1.07 199.35-1.17L199.35-1.17Q199.15-1.22 198.86-1.22ZM213.8-1.22L213.8-1.22 210.28-1.22 210.28-10.94Q210.28-15.38 213.01-18.07L213.01-18.07Q214.09-19.09 214.82-19.14L214.82-19.14Q215.65-19.14 216.33-17.92L216.33-17.92Q217.12-16.55 217.8-16.36L217.8-16.36Q218.09-16.26 218.39-16.26L218.39-16.26Q219.85-16.26 220.24-17.68L220.24-17.68Q220.34-17.97 220.34-18.26L220.34-18.26Q220.34-20.46 218.09-20.95L218.09-20.95Q217.6-21.04 217.17-21.04L217.17-21.04Q214.24-21.04 211.94-18.55L211.94-18.55Q210.87-17.38 210.23-15.92L210.23-15.92 210.04-20.75 202.96-20.75 202.96-19.53 206.62-19.53 206.62-4.15Q206.62-1.9 205.35-1.46L205.35-1.46Q204.62-1.22 202.96-1.22L202.96-1.22 202.96 0 215.02 0Q215.02-1.07 214.28-1.17L214.28-1.17Q214.09-1.22 213.8-1.22ZM229.86-0.83L229.86-0.83Q233.23-0.83 234.4-2.88L234.4-2.88Q234.84-3.61 234.84-4.49L234.84-4.49Q234.84-6.54 231.86-8.01L231.86-8.01Q231.23-8.35 229.76-8.98L229.76-8.98Q225.76-10.64 224.44-12.11L224.44-12.11Q223.02-13.72 223.02-15.87L223.02-15.87Q223.02-19.24 226.73-20.61L226.73-20.61Q228.44-21.24 230.44-21.24L230.44-21.24Q233.67-21.24 236.01-19.87L236.01-19.87Q236.01-21.29 236.69-21.48L236.69-21.48Q236.99-21.53 237.33-21.53L237.33-21.53 237.33-15.43 236.06-15.43Q235.96-19.92 231.08-19.97L231.08-19.97Q227.42-19.97 226.54-17.82L226.54-17.82Q226.29-17.24 226.29-16.6L226.29-16.6Q226.29-14.5 229.32-13.04L229.32-13.04Q230-12.7 231.47-12.11L231.47-12.11Q235.42-10.5 236.74-9.03L236.74-9.03Q238.16-7.47 238.16-5.32L238.16-5.32Q238.16-1.37 233.96-0.05L233.96-0.05Q232.35 0.49 230.44 0.49L230.44 0.49Q226.93 0.44 224.34-1.27L224.34-1.27Q224.34 0 223.71 0.2L223.71 0.2Q223.41 0.24 223.02 0.24L223.02 0.24 223.02-7.18 224.39-7.18Q224.49-0.88 229.86-0.83ZM252.27-20.02L252.27-20.02Q255.69-20.02 256.81-17.14L256.81-17.14Q257.2-16.21 257.2-15.14L257.2-15.14Q257.2-12.7 254.86-12.16L254.86-12.16Q253.63-11.91 251.39-11.96L251.39-11.96 246.21-12.11Q246.46-17.72 249.87-19.43L249.87-19.43Q251-20.02 252.27-20.02ZM260.76-4.69L260.76-4.69 259.54-5.13Q257.83-1.42 254.03-0.93L254.03-0.93Q253.54-0.88 253.1-0.88L253.1-0.88Q247.97-0.88 246.65-6.98L246.65-6.98Q246.26-8.69 246.21-10.74L246.21-10.74 252.07-10.64Q258.03-10.55 259.74-11.77L259.74-11.77Q261.06-12.74 261.06-14.55L261.06-14.55Q261.06-17.87 257.69-19.82L257.69-19.82Q255.29-21.24 252.17-21.24L252.17-21.24Q246.07-21.24 243.43-16.16L243.43-16.16Q242.06-13.53 242.06-10.21L242.06-10.21Q242.06-4.15 246.41-1.22L246.41-1.22Q249 0.49 252.32 0.49L252.32 0.49Q257.59 0.49 260.08-3.32L260.08-3.32Q260.47-4 260.76-4.69Z" opacity="1" transform="matrix(1,0,0,1,0,0)" fill="#ffffff" class="wordmark-text-0" data-fill-palette-color="primary" id="text-0"></path></svg></g></svg></g><g transform="matrix(1,0,0,1,0,47.69667726074467)"><svg viewBox="0 0 244.43135999999998 7.717434407066341" height="7.717434407066341" width="244.43135999999998"><g transform="matrix(1,0,0,1,0,0)"><svg width="244.43135999999998" viewBox="1.6618576416670001 -24.07 771.7150988800701 24.36" height="7.717434407066341" data-palette-color="#c1c1c1"><path d="M8.84 0.29L8.84 0.29Q4.91 0.29 3.38-0.98 1.86-2.25 1.73-5.13L1.73-5.13Q1.68-5.88 1.67-6.82 1.66-7.76 1.76-8.47L1.76-8.47 4.61-8.47Q4.57-7.35 4.58-6.41 4.59-5.47 4.61-4.81L4.61-4.81Q4.64-3.47 5.55-2.95 6.47-2.44 8.84-2.44L8.84-2.44Q11.25-2.44 12.24-2.95 13.23-3.47 13.31-4.81L13.31-4.81Q13.38-5.64 13.4-6.04 13.43-6.45 13.4-7.2L13.4-7.2Q13.33-8.45 12.74-9.13 12.16-9.81 10.21-10.11L10.21-10.11 7.35-10.77Q5.15-11.23 3.96-11.94 2.76-12.65 2.27-13.78 1.78-14.92 1.68-16.65L1.68-16.65Q1.61-17.53 1.81-18.58L1.81-18.58Q1.86-21.53 3.41-22.8 4.96-24.07 9.06-24.07L9.06-24.07Q12.99-24.07 14.51-22.83 16.04-21.58 16.19-18.73L16.19-18.73Q16.19-17.99 16.17-17.05 16.16-16.11 16.09-15.41L16.09-15.41 13.13-15.41Q13.26-16.26 13.24-17.36 13.23-18.46 13.18-19.07L13.18-19.07Q13.16-20.36 12.29-20.85 11.43-21.34 9.06-21.34L9.06-21.34Q6.67-21.34 5.8-20.85 4.93-20.36 4.83-19.07L4.83-19.07Q4.81-18.46 4.76-18.05 4.71-17.65 4.74-16.94L4.74-16.94Q4.81-16.09 4.99-15.43 5.18-14.77 5.82-14.34 6.47-13.92 7.93-13.7L7.93-13.7 10.67-13.13Q13.65-12.52 15.01-11.24 16.38-9.96 16.38-7.37L16.38-7.37Q16.38-6.84 16.37-6.23 16.36-5.62 16.31-5.05L16.31-5.05Q16.14-2.2 14.51-0.95 12.89 0.29 8.84 0.29ZM101.92 0.27L101.92 0.27Q98.94 0.27 97.51-0.9 96.08-2.08 95.84-4.57L95.84-4.57Q95.81-5.05 95.78-5.54 95.74-6.03 95.79-6.49L95.79-6.49Q95.96-8.67 97.16-10.14 98.35-11.62 101.7-12.84L101.7-12.84Q103.06-13.33 104.58-13.72 106.09-14.11 107.58-14.48L107.58-14.48 107.58-18.99Q107.58-20.19 106.68-20.76 105.77-21.34 103.53-21.34L103.53-21.34Q101.57-21.34 100.56-20.85 99.55-20.36 99.45-19.07L99.45-19.07Q99.4-18.46 99.4-17.32 99.4-16.19 99.45-15.41L99.45-15.41 96.4-15.41Q96.35-16.02 96.3-16.99 96.25-17.97 96.33-18.73L96.33-18.73Q96.45-21.56 98.17-22.81 99.89-24.07 103.65-24.07L103.65-24.07Q107.58-24.07 109.11-22.71 110.63-21.34 110.66-18.21L110.66-18.21 110.66 0 107.58 0 107.58-2.25 106.9-2.25Q106.29-1.03 105.15-0.38 104.02 0.27 101.92 0.27ZM102.7-2.37L102.7-2.37Q106.21-2.37 107.56-4.47L107.56-4.47 107.56-11.87Q106.38-11.62 105.15-11.29 103.92-10.96 102.26-10.4L102.26-10.4Q100.28-9.67 99.62-8.72 98.96-7.76 98.86-6.49L98.86-6.49Q98.89-6.13 98.9-5.7 98.91-5.27 98.96-4.81L98.96-4.81Q99.13-3.64 100.13-3 101.14-2.37 102.7-2.37ZM205.64-23.75L200.88 0 194.31 0 189.8-23.75 193.07-23.75 194.92-11.82 196.66-2.71 198.54-2.71 200.37-11.82 202.34-23.75 205.64-23.75ZM292.18 0.29L292.18 0.29Q288.15 0.29 286.43-0.98 284.71-2.25 284.58-5.13L284.58-5.13Q284.49-6.93 284.45-9.38 284.41-11.82 284.45-14.28 284.49-16.75 284.58-18.58L284.58-18.58Q284.71-21.53 286.48-22.8 288.25-24.07 292.18-24.07L292.18-24.07Q295.89-24.07 297.55-22.83 299.21-21.58 299.38-18.73L299.38-18.73Q299.43-17.87 299.48-15.75 299.52-13.62 299.33-11.23L299.33-11.23 287.63-11.23Q287.63-9.69 287.66-8.11 287.68-6.52 287.76-4.81L287.76-4.81Q287.78-3.47 288.78-2.95 289.78-2.44 292.08-2.44L292.08-2.44Q294.35-2.44 295.28-2.95 296.2-3.47 296.3-4.81L296.3-4.81Q296.38-6.15 296.3-8.47L296.3-8.47 299.33-8.47Q299.45-7.76 299.44-6.82 299.43-5.88 299.38-5.13L299.38-5.13Q299.21-2.25 297.63-0.98 296.06 0.29 292.18 0.29ZM287.63-13.82L287.63-13.82 296.35-13.82Q296.4-15.48 296.4-16.99 296.4-18.51 296.3-19.07L296.3-19.07Q296.2-20.29 295.25-20.81 294.3-21.34 292.18-21.34L292.18-21.34Q289.81-21.34 288.79-20.81 287.78-20.29 287.76-19.07L287.76-19.07Q287.68-17.65 287.65-16.36 287.61-15.06 287.63-13.82ZM468.74-19.19L468.74 0 465.59 0 465.59-23.75 468.74-23.75 468.74-21.53 469.35-21.53Q470.18-22.83 471.29-23.45 472.4-24.07 474.35-24.07L474.35-24.07Q478.28-24.07 479.19-21.34L479.19-21.34 479.85-21.34Q480.65-22.61 481.9-23.34 483.14-24.07 485.1-24.07L485.1-24.07Q487.71-24.07 489-22.86 490.3-21.66 490.3-18.82L490.3-18.82 490.3 0 487.17 0 487.17-19.09Q487.12-20.31 486.41-20.86 485.71-21.41 484.07-21.41L484.07-21.41Q480.82-21.41 479.55-19.12L479.55-19.12 479.55 0 476.43 0 476.43-19.09Q476.38-20.31 475.67-20.86 474.96-21.41 473.38-21.41L473.38-21.41Q469.91-21.41 468.74-19.19L468.74-19.19ZM578.1 0.29L578.1 0.29Q574.12 0.29 572.49-1.07 570.85-2.44 570.73-5.62L570.73-5.62Q570.58-7.42 570.53-9.63 570.48-11.84 570.53-14.09 570.58-16.33 570.73-18.16L570.73-18.16Q570.85-21.34 572.5-22.71 574.15-24.07 578.1-24.07L578.1-24.07Q582.11-24.07 583.7-22.71 585.3-21.34 585.43-18.16L585.43-18.16Q585.57-16.36 585.62-14.15 585.67-11.94 585.62-9.7 585.57-7.47 585.43-5.62L585.43-5.62Q585.3-2.47 583.7-1.09 582.11 0.29 578.1 0.29ZM578.1-2.44L578.1-2.44Q580.35-2.44 581.3-2.99 582.25-3.54 582.33-4.81L582.33-4.81Q582.57-8.62 582.57-11.89 582.57-15.16 582.33-18.97L582.33-18.97Q582.25-20.26 581.32-20.8 580.4-21.34 578.1-21.34L578.1-21.34Q575.81-21.34 574.87-20.8 573.93-20.26 573.85-18.97L573.85-18.97Q573.63-15.16 573.62-11.88 573.61-8.59 573.85-4.81L573.85-4.81Q573.9-3.54 574.89-2.99 575.88-2.44 578.1-2.44ZM669.23-19.19L669.23 0 666.08 0 666.08-23.75 669.23-23.75 669.23-21.53 669.91-21.53Q670.55-22.75 671.6-23.41 672.65-24.07 674.21-24.07L674.21-24.07Q676.55-24.07 677.69-22.84 678.82-21.61 678.82-18.58L678.82-18.58Q678.82-17.92 678.77-17.02 678.72-16.11 678.63-15.41L678.63-15.41 675.6-15.41Q675.65-15.65 675.66-16.26 675.67-16.87 675.68-17.48 675.7-18.09 675.7-18.31L675.7-18.31Q675.7-20.12 675.09-20.76 674.48-21.41 673.13-21.41L673.13-21.41Q670.28-21.41 669.23-19.19L669.23-19.19ZM766.07 0.29L766.07 0.29Q762.04 0.29 760.32-0.98 758.6-2.25 758.47-5.13L758.47-5.13Q758.38-6.93 758.34-9.38 758.3-11.82 758.34-14.28 758.38-16.75 758.47-18.58L758.47-18.58Q758.6-21.53 760.37-22.8 762.14-24.07 766.07-24.07L766.07-24.07Q769.78-24.07 771.44-22.83 773.1-21.58 773.27-18.73L773.27-18.73Q773.32-17.87 773.37-15.75 773.41-13.62 773.22-11.23L773.22-11.23 761.52-11.23Q761.52-9.69 761.55-8.11 761.57-6.52 761.65-4.81L761.65-4.81Q761.67-3.47 762.67-2.95 763.67-2.44 765.97-2.44L765.97-2.44Q768.24-2.44 769.17-2.95 770.09-3.47 770.19-4.81L770.19-4.81Q770.27-6.15 770.19-8.47L770.19-8.47 773.22-8.47Q773.34-7.76 773.33-6.82 773.32-5.88 773.27-5.13L773.27-5.13Q773.1-2.25 771.52-0.98 769.95 0.29 766.07 0.29ZM761.52-13.82L761.52-13.82 770.24-13.82Q770.29-15.48 770.29-16.99 770.29-18.51 770.19-19.07L770.19-19.07Q770.09-20.29 769.14-20.81 768.19-21.34 766.07-21.34L766.07-21.34Q763.7-21.34 762.68-20.81 761.67-20.29 761.65-19.07L761.65-19.07Q761.57-17.65 761.54-16.36 761.5-15.06 761.52-13.82Z" opacity="1" transform="matrix(1,0,0,1,0,0)" fill="#ffffff" class="slogan-text-1" data-fill-palette-color="secondary" id="text-1"></path></svg></g></svg></g></svg></g></svg></g></svg></g></svg></g></svg></g><g><path d="M0 123.6c0-68.262 55.338-123.6 123.6-123.6 57.101 0 105.158 38.721 119.347 91.338l-1.803 0c-14.142-51.645-61.411-89.598-117.544-89.598-67.301 0-121.86 54.559-121.86 121.86 0 67.301 54.559 121.86 121.86 121.86 56.133 0 103.401-37.953 117.544-89.598h1.803c-14.189 52.617-62.246 91.338-119.347 91.338-68.262 0-123.6-55.338-123.6-123.6z" fill="#ffffff" stroke="transparent" data-fill-palette-color="tertiary"></path></g></svg></g><defs></defs></svg><rect width="395.52" height="247.2" fill="none" stroke="none" visibility="hidden"></rect></g></svg></g></svg>